<?xml version="1.0" encoding="UTF-8" standalone="no"?>
<!DOCTYPE svg PUBLIC "-//W3C//DTD SVG 1.1//EN" "http://www.w3.org/Graphics/SVG/1.1/DTD/svg11.dtd">
<svg width="100%" height="100%" viewBox="0 0 180 150" version="1.1" xmlns="http://www.w3.org/2000/svg" xmlns:xlink="http://www.w3.org/1999/xlink" xml:space="preserve" style="fill-rule:evenodd;clip-rule:evenodd;stroke-linejoin:round;stroke-miterlimit:1.41421;">
    <g transform="matrix(4.16667,0,0,4.16667,0,0)">
        <path d="M39.855,28.799L39.437,28.799L39.437,27.953L39.966,27.953C40.242,27.953 40.553,27.998 40.553,28.356C40.553,28.766 40.239,28.799 39.855,28.799ZM40.271,29.051C40.694,28.999 40.916,28.766 40.916,28.375C40.916,27.899 40.626,27.667 40.032,27.667L39.079,27.667L39.079,30.174L39.437,30.174L39.437,29.082L39.88,29.082L39.889,29.096L40.579,30.174L40.961,30.174L40.223,29.058L40.271,29.051Z" style="fill:rgb(35,31,32);fill-rule:nonzero;"/>
        <path d="M39.896,30.985C38.761,30.985 37.871,30.088 37.871,28.924C37.871,27.761 38.761,26.864 39.896,26.864C41.032,26.864 41.92,27.761 41.92,28.924C41.92,30.088 41.032,30.985 39.896,30.985ZM39.896,26.553C38.565,26.553 37.522,27.594 37.522,28.924C37.522,30.255 38.565,31.295 39.896,31.295C41.225,31.295 42.268,30.255 42.268,28.924C42.268,27.594 41.225,26.553 39.896,26.553Z" style="fill:rgb(35,31,32);fill-rule:nonzero;"/>
        <path d="M33.335,0L2.655,0C1.19,0 0,1.163 0,2.596L0,33.403C0,34.836 1.19,36 2.655,36L33.335,36C34.803,36 35.999,34.836 35.999,33.403L35.999,2.596C35.999,1.163 34.803,0 33.335,0Z" style="fill:rgb(0,123,182);fill-rule:nonzero;"/>
        <path d="M8.007,4.957C9.715,4.957 11.102,6.344 11.102,8.053C11.102,9.762 9.715,11.149 8.007,11.149C6.292,11.149 4.91,9.762 4.91,8.053C4.91,6.344 6.292,4.957 8.007,4.957ZM5.333,13.497L10.678,13.497L10.678,30.676L5.333,30.676L5.333,13.497Z" style="fill:white;fill-rule:nonzero;"/>
        <path d="M14.028,13.497L19.146,13.497L19.146,15.845L19.219,15.845C19.931,14.495 21.673,13.07 24.271,13.07C29.677,13.07 30.676,16.627 30.676,21.254L30.676,30.676L25.337,30.676L25.337,22.322C25.337,20.33 25.303,17.767 22.563,17.767C19.785,17.767 19.361,19.938 19.361,22.179L19.361,30.676L14.028,30.676L14.028,13.497Z" style="fill:white;fill-rule:nonzero;"/>
    </g>
</svg>
